<svg width="2000" height="517" viewBox="0 0 2000 517" fill="none" xmlns="http://www.w3.org/2000/svg">
<g clip-path="url(#clip0_40_3)">
<path opacity="0.961" fill-rule="evenodd" clip-rule="evenodd" d="M224.578 55.4444C323.913 51.5707 396.475 93.3631 442.267 180.822C381.909 195.494 322.207 193.657 263.156 175.311C247.105 167.746 231.49 159.48 216.311 150.511C175.708 135.27 135.293 136.188 95.0667 153.267C80.1925 160.348 67.3334 169.992 56.489 182.2C55.5705 181.282 54.6518 180.363 53.7334 179.444C89.1718 108.146 146.12 66.8125 224.578 55.4444Z" fill="#652D91"/>
<path opacity="0.971" fill-rule="evenodd" clip-rule="evenodd" d="M445.022 198.733C476.168 292.24 454.124 371.691 378.889 437.089C335.679 469.858 286.997 483.636 232.844 478.422C281.342 413.592 293.742 342.408 270.044 264.867C267.18 258.677 263.965 252.706 260.4 246.956C288.132 251.155 316.145 254.37 344.444 256.6C389.432 255.958 422.959 236.669 445.022 198.733Z" fill="#1AC8E5"/>
<path opacity="0.975" fill-rule="evenodd" clip-rule="evenodd" d="M111.6 201.489C129.076 201.031 146.528 201.49 163.955 202.867C199.757 211.124 220.424 233.628 225.956 270.378C233.577 346.938 207.858 409.398 148.8 457.756C67.0611 410.95 29.402 340.223 35.8222 245.578C55.9308 221.977 81.1899 207.281 111.6 201.489Z" fill="#FE6A00"/>
<path d="M655.432 98.1818V89.0909H852.023V98.1818H758.273V380H749.182V98.1818H655.432ZM916.085 380V161.818H925.176V380H916.085ZM920.631 122.045C918.169 122.045 916.038 121.146 914.239 119.347C912.439 117.547 911.54 115.417 911.54 112.955C911.54 110.492 912.439 108.362 914.239 106.562C916.038 104.763 918.169 103.864 920.631 103.864C923.093 103.864 925.223 104.763 927.023 106.562C928.822 108.362 929.722 110.492 929.722 112.955C929.722 115.417 928.822 117.547 927.023 119.347C925.223 121.146 923.093 122.045 920.631 122.045ZM1012.71 89.0909V380H1003.62V89.0909H1012.71ZM1096.77 380V89.0909H1105.86V217.5H1106.99C1110.78 205.379 1116.27 194.915 1123.47 186.108C1130.67 177.206 1139.14 170.388 1148.9 165.653C1158.65 160.824 1169.3 158.409 1180.86 158.409C1197.9 158.409 1212.72 163.381 1225.32 173.324C1237.91 183.267 1247.67 196.761 1254.58 213.807C1261.49 230.852 1264.95 250.076 1264.95 271.477C1264.95 292.973 1261.49 312.244 1254.58 329.29C1247.76 346.335 1238.05 359.83 1225.46 369.773C1212.96 379.621 1198.09 384.545 1180.86 384.545C1169.21 384.545 1158.51 382.131 1148.76 377.301C1139.1 372.472 1130.72 365.653 1123.61 356.847C1116.51 347.945 1110.97 337.481 1106.99 325.455H1105.86V380H1096.77ZM1105.86 271.477C1105.86 291.174 1108.89 308.883 1114.95 324.602C1121.01 340.227 1129.63 352.633 1140.8 361.818C1152.07 370.909 1165.42 375.455 1180.86 375.455C1196.29 375.455 1209.6 370.909 1220.77 361.818C1232.04 352.633 1240.71 340.227 1246.77 324.602C1252.83 308.883 1255.86 291.174 1255.86 271.477C1255.86 251.78 1252.78 234.119 1246.62 218.494C1240.56 202.775 1231.9 190.369 1220.63 181.278C1209.46 172.093 1196.2 167.5 1180.86 167.5C1165.52 167.5 1152.21 172.093 1140.94 181.278C1129.77 190.369 1121.1 202.775 1114.95 218.494C1108.89 234.119 1105.86 251.78 1105.86 271.477ZM1331.14 461.818C1327.45 461.818 1323.52 461.297 1319.35 460.256C1315.19 459.309 1310.97 457.936 1306.71 456.136L1310.12 448.182C1319.49 452.159 1328.02 453.58 1335.69 452.443C1343.45 451.402 1350.27 447.85 1356.14 441.79C1362.11 435.729 1367.03 427.254 1370.91 416.364L1382.56 383.977L1303.02 161.818H1312.68L1386.54 368.636H1387.68L1461.54 161.818H1471.2L1379.44 419.773C1376.22 428.864 1372.19 436.534 1367.36 442.784C1362.53 449.034 1357.04 453.769 1350.89 456.989C1344.83 460.208 1338.24 461.818 1331.14 461.818Z" fill="white"/>
</g>
<defs>
<clipPath id="clip0_40_3">
<rect width="2000" height="517" fill="white"/>
</clipPath>
</defs>
</svg>
